<?xml version="1.0" standalone="no"?>
<!DOCTYPE svg PUBLIC "-//W3C//DTD SVG 20010904//EN"
 "http://www.w3.org/TR/2001/REC-SVG-20010904/DTD/svg10.dtd">
<svg version="1.0" xmlns="http://www.w3.org/2000/svg"
 width="50.000000pt" height="50.000000pt" viewBox="0 0 50.000000 50.000000"
 preserveAspectRatio="xMidYMid meet">
<metadata>
Created by potrace 1.16, written by Peter Selinger 2001-2019
</metadata>
<g transform="translate(0.000000,50.000000) scale(0.100000,-0.100000)"
fill="#000000" stroke="none">
<path d="M162 484 c-12 -8 -22 -12 -22 -7 0 4 -16 -10 -35 -30 -36 -38 -43
-64 -24 -98 6 -11 12 -52 14 -91 2 -39 8 -74 12 -77 16 -11 63 -91 63 -105 0
-9 -24 -24 -60 -37 -33 -12 -63 -26 -66 -31 -3 -4 29 -7 70 -6 55 2 72 5 65
14 -7 8 7 11 53 10 35 0 71 3 82 8 16 8 17 6 11 -13 -6 -20 -5 -21 12 -13 12
7 25 7 34 1 18 -11 92 -12 85 0 -3 4 -33 18 -66 30 -66 24 -73 39 -40 81 11
14 20 30 20 37 0 7 7 16 15 20 10 6 16 31 19 78 3 39 9 81 14 95 17 47 -13
107 -70 136 -38 19 -157 18 -186 -2z m150 -125 c35 -42 35 -45 -1 -52 -28 -6
-29 -8 -18 -37 12 -31 37 -41 37 -15 0 8 4 15 9 15 5 0 16 3 25 6 23 9 21 -57
-4 -105 -55 -108 -114 -131 -175 -67 -41 44 -65 95 -65 139 0 31 2 34 25 30
13 -3 23 -10 22 -16 -1 -6 5 -12 13 -14 10 -2 20 8 27 26 12 32 3 41 -38 41
-15 0 -17 3 -9 18 5 9 15 30 20 46 10 27 13 28 58 23 37 -4 52 -12 74 -38z"/>
<path d="M220 185 c0 -6 5 -16 12 -23 9 -9 8 -12 -5 -12 -20 0 -21 -4 -7 -31
12 -21 40 -25 58 -7 17 17 15 38 -5 38 -13 0 -14 3 -5 12 20 20 13 33 -18 33
-16 0 -30 -5 -30 -10z"/>
</g>
</svg>
